<svg width="78" height="71" viewBox="0 0 78 71" fill="none" xmlns="http://www.w3.org/2000/svg">
<path d="M11.2202 53.6224L13.2568 56.4736C13.4856 56.794 13.5052 57.2187 13.3069 57.5587L10.7864 61.8795C10.4561 62.4459 9.67918 62.5464 9.21555 62.0827L9.19133 62.0585C9.15239 62.0196 9.11672 61.9775 9.08471 61.9327L6.63281 58.5L2.68954 51.5993C2.65184 51.5333 2.62179 51.4633 2.59996 51.3905L1.13281 46.5L0.152232 41.5971C0.139317 41.5325 0.132812 41.4668 0.132812 41.401V35L0.621985 31.0866C0.62919 31.029 0.641402 30.9721 0.658484 30.9166L2.60847 24.5791C2.62467 24.5265 2.64519 24.4752 2.66983 24.426L5.59772 18.5702C5.62108 18.5235 5.64806 18.4787 5.67842 18.4362L8.13281 15L12.5735 10.0659C12.613 10.0221 12.6562 9.98178 12.7028 9.94554L17.0439 6.56918C17.103 6.52321 17.1671 6.48402 17.2349 6.45235L24.5302 3.04789C24.5984 3.01607 24.67 2.99204 24.7435 2.97627L31.6328 1.5L36.1328 1H42.1328L47.5172 1.48949C47.594 1.49647 47.6698 1.51232 47.7429 1.5367L50.6328 2.5L57.0518 4.96883C57.1057 4.98957 57.1577 5.01495 57.2073 5.04468L64.5043 9.42288C64.5895 9.47401 64.6666 9.53755 64.7331 9.61141L69.1328 14.5L73.5577 20.8915C73.6075 20.9635 73.6477 21.0418 73.6772 21.1243L76.1053 27.923C76.1236 27.9742 76.1377 28.0269 76.1474 28.0804L77.1167 33.4113C77.1274 33.4703 77.1328 33.5302 77.1328 33.5902V40.4098C77.1328 40.4698 77.1274 40.5297 77.1167 40.5887L76.1474 45.9196C76.1377 45.9731 76.1236 46.0258 76.1053 46.077L73.6328 53L73.3808 53.504C72.9454 54.3749 71.6328 54.065 71.6328 53.0914C71.6328 53.0306 71.6268 52.97 71.6149 52.9104L71.1328 50.5L70.1675 47.6041C70.1445 47.5349 70.1139 47.4684 70.0763 47.4059L68.8317 45.3315C68.7037 45.1182 68.6598 44.8648 68.7086 44.6209L69.6134 40.0971C69.6263 40.0325 69.6328 39.9668 69.6328 39.901V33L69.1474 29.1168C69.1377 29.0392 69.1189 28.963 69.0915 28.8897L66.1695 21.0977C66.1451 21.0327 66.114 20.9705 66.0768 20.912L62.6917 15.5926C62.6526 15.5311 62.6068 15.474 62.5552 15.4224L59.1328 12L56.222 9.5743C56.1627 9.52493 56.098 9.48258 56.029 9.4481L49.231 6.04909C49.1657 6.01646 49.0971 5.99107 49.0263 5.97338L41.2522 4.02986C41.1729 4.01003 41.0915 4 41.0097 4H36.723C36.663 4 36.6031 4.0054 36.5441 4.01613L31.244 4.97979C31.1701 4.99322 31.098 5.01493 31.029 5.04451L27.7172 6.46383C27.6611 6.48789 27.6072 6.51705 27.5564 6.55093L21.6328 10.5L17.2014 14.439C17.1558 14.4796 17.1139 14.5243 17.0764 14.5725L13.6328 19L11.1801 22.9243C11.1486 22.9747 11.1217 23.0277 11.0997 23.0829L9.16141 27.9285C9.14237 27.9761 9.12702 28.0251 9.1155 28.075L7.65842 34.389C7.6414 34.4628 7.63281 34.5382 7.63281 34.6139V39.9172C7.63281 39.9723 7.63736 40.0273 7.64642 40.0816L8.61991 45.9226C8.6285 45.9741 8.64111 46.0249 8.65762 46.0744L11.0853 53.3573C11.1168 53.4519 11.1623 53.5412 11.2202 53.6224Z" fill="url(#paint0_linear_50_1280)" stroke="black" stroke-width="0.1"/>
<path d="M61.569 41.9787L60.9508 41.7727C60.5241 41.6304 60.2277 42.1961 60.5875 42.466C60.6176 42.4886 60.6443 42.5153 60.6668 42.5453L62.1328 44.5L62.9893 45.7847C63.746 46.9198 64.3019 48.1765 64.6328 49.5L64.7255 50.3058C64.9085 51.8954 64.7051 53.5057 64.1328 55L63.801 55.6637C63.0254 57.2149 62.0548 58.6606 60.9127 59.9658C59.7313 61.316 58.3766 62.5042 56.8838 63.4994L56.1328 64L52.6328 66L47.6328 68L43.7034 68.9823C43.6572 68.9939 43.615 69.0178 43.5814 69.0515C43.4158 69.217 43.5331 69.5 43.7671 69.5H49.6328L53.6328 69C55.6281 68.6674 57.5865 68.1424 59.4805 67.4321L60.6328 67L62.6164 66.0082C63.9552 65.3388 65.203 64.5011 66.3295 63.5154L67.0756 62.8626C68.106 61.961 68.9728 60.8881 69.6377 59.6912L70.0876 58.8814C70.7731 57.6475 71.1328 56.2593 71.1328 54.8478C71.1328 53.9551 70.9889 53.0682 70.7066 52.2214L70.6328 52L70.1328 50.5C69.8016 49.5065 69.3125 48.5729 68.6841 47.7351L68.5897 47.6091C68.2855 47.2036 67.9529 46.8201 67.5944 46.4616L67.2971 46.1643C66.5228 45.39 65.6739 44.6941 64.7627 44.0866L61.6888 42.0373C61.6516 42.0125 61.6114 41.9928 61.569 41.9787Z" fill="url(#paint1_linear_50_1280)"/>
<path d="M26.2872 43.4303L36.6328 22C36.8287 21.6082 37.3943 21.6277 37.5628 22.032L39.4623 26.5907C39.5709 26.8513 39.5642 27.1457 39.444 27.4012L32.3038 42.5742C31.9917 43.2374 32.4756 44 33.2086 44H45.9398C46.3567 44 46.7298 44.2586 46.8761 44.6489L47.6261 46.6489C47.8713 47.3026 47.388 48 46.6898 48H30.7508C30.3721 48 30.0258 48.214 29.8564 48.5528L25.2054 57.8549C25.1573 57.951 25.0941 58.0387 25.0181 58.1147L18.6328 64.5L14.9331 69.1247C14.7433 69.3619 14.456 69.5 14.1522 69.5H8.79022C8.03746 69.5 7.5546 68.6997 7.90556 68.0338L23.227 38.9624C23.7693 37.9333 25.3349 38.503 25.089 39.6399L24.4092 42.7842C24.159 43.9415 25.7724 44.4966 26.2872 43.4303Z" fill="url(#paint2_linear_50_1280)"/>
<path d="M42.9344 11H34.1359C33.4215 11 32.9376 11.7275 33.2136 12.3864L48.1328 48L51.0691 55.8302C51.1112 55.9425 51.1328 56.0614 51.1328 56.1813V58.3769C51.1328 58.4587 51.1228 58.5401 51.103 58.6194L50.6818 60.3041C50.6495 60.4334 50.5916 60.5549 50.5116 60.6616L49.1755 62.4431C49.1471 62.481 49.116 62.5168 49.0826 62.5503L47.2199 64.413C47.162 64.4708 47.0974 64.5213 47.0273 64.5633L44.7015 65.9588C44.6558 65.9862 44.6079 66.01 44.5584 66.0298L42.1328 67L38.7675 67.9615C38.6781 67.987 38.5857 68 38.4928 68H37.1328H34.6328H32.8689C32.7136 68 32.5605 67.9639 32.4217 67.8944L31.778 67.5726C31.6818 67.5245 31.5941 67.4613 31.5181 67.3853L30.9257 66.7929C30.7382 66.6054 30.6328 66.351 30.6328 66.0858V64.2053C30.6328 64.0698 30.6603 63.9358 30.7137 63.8113L32.1328 60.5L35.6328 54.5L37.7568 51.7388C38.3343 50.988 37.436 49.998 36.6328 50.5L29.1328 56.5L24.6859 60.4528C24.6506 60.4842 24.6175 60.5181 24.5869 60.5543L19.3391 66.7562C19.2059 66.9136 19.1328 67.1131 19.1328 67.3193C19.1328 67.7194 19.4051 68.0681 19.7932 68.1651L27.0134 69.9701C27.0927 69.99 27.1742 70 27.2559 70H32.1328L36.1328 69.5L39.6328 69L43.6328 68L51.5097 65.0462C51.5914 65.0155 51.6688 64.9743 51.7398 64.9236L55.1328 62.5L58.0552 60.0647C58.1068 60.0217 58.1539 59.9736 58.1959 59.9211L60.0214 57.6393C60.0951 57.5471 60.1519 57.4427 60.1892 57.3308L60.5276 56.3155C60.5794 56.1603 60.4638 56 60.3002 56C60.1997 56 60.1098 55.9372 60.0752 55.8428L43.8733 11.6557C43.7288 11.2619 43.3539 11 42.9344 11Z" fill="url(#paint3_linear_50_1280)" stroke="black" stroke-width="0.1"/>
<defs>
<linearGradient id="paint0_linear_50_1280" x1="11.6237" y1="15.1079" x2="70.6419" y2="52.392" gradientUnits="userSpaceOnUse">
<stop stop-color="#008ABA"/>
<stop offset="0.46" stop-color="#282836"/>
</linearGradient>
<linearGradient id="paint1_linear_50_1280" x1="63" y1="49" x2="64.5" y2="65" gradientUnits="userSpaceOnUse">
<stop stop-color="#00A1D0"/>
<stop offset="1" stop-color="#282836"/>
</linearGradient>
<linearGradient id="paint2_linear_50_1280" x1="33.5" y1="11.5" x2="54.5" y2="69.5" gradientUnits="userSpaceOnUse">
<stop offset="0.335637" stop-color="#0087B8"/>
<stop offset="0.741684" stop-color="#282836"/>
</linearGradient>
<linearGradient id="paint3_linear_50_1280" x1="36.5" y1="11" x2="45" y2="67.5" gradientUnits="userSpaceOnUse">
<stop stop-color="#0087B8"/>
<stop offset="0.466846" stop-color="#0185B5"/>
<stop offset="1" stop-color="#282836"/>
</linearGradient>
</defs>
</svg>
